<svg xmlns="http://www.w3.org/2000/svg" version="1.1" xmlns:xlink="http://www.w3.org/1999/xlink" width="500" height="500"><svg xmlns="http://www.w3.org/2000/svg" xmlns:xlink="http://www.w3.org/1999/xlink" viewBox="0 0 500 500"><defs><style>.cls-1{isolation:isolate;}.cls-2{fill:#f3f3ff;}.cls-3{opacity:0.5;mix-blend-mode:multiply;fill:url(#Degradado_sin_nombre_12);}.cls-4{fill:#348c90;}.cls-5{fill:none;stroke:#df6a00;stroke-miterlimit:10;stroke-width:44.32px;}</style><linearGradient id="SvgjsLinearGradient1005" x1="-473.24" y1="469.09" x2="72.72" y2="1015.06" gradientUnits="userSpaceOnUse"><stop offset="0" stop-color="#ff791a"></stop><stop offset="1" stop-color="#ffb063" stop-opacity="0"></stop></linearGradient></defs><g class="cls-1"><g id="SvgjsG1004"><rect class="cls-2" width="500" height="500"></rect></g><g id="SvgjsG1003"><path class="cls-3" d="M72.41,1014.74V714.81L-172.41,470c-82.83-82.83-217.11-82.83-299.94,0s-82.82,217.11,0,299.93l245.11,244.82Z"></path><path class="cls-4" d="M95.67,250c.5-98.7,83.25-179,183-179.45,43.86,0,83.74,14.45,115.15,38.88a29.5,29.5,0,0,1,5,39.88c-10,12.46-28.41,14.45-39.88,5.48-21.93-17.95-49.35-27.42-80.25-27.42-34.4,0-66.3,14-89.73,35.89C166.46,186.19,152.5,216.1,152.5,250a121.24,121.24,0,0,0,36.39,86.74c23.43,21.93,55.33,35.89,89.73,35.89,30.9,0,57.82-9.48,80.25-27.42,11.47-8.47,29.91-6.48,39.88,5.48,9,12.46,7,30.41-5,39.88-31.41,24.43-71.29,38.88-115.15,38.88C178.92,429.45,96.17,349.2,95.67,250Z"></path><circle class="cls-5" cx="270.96" cy="252.05" r="60.12"></circle></g></g></svg><style>@media (prefers-color-scheme: light) { :root { filter: none; } }
@media (prefers-color-scheme: dark) { :root { filter: none; } }
</style></svg>